<svg width="88" height="34" viewBox="0 0 88 34" fill="none" xmlns="http://www.w3.org/2000/svg">
<rect width="88" height="34" rx="17" fill="white"/>
<path d="M16.6827 19.013L18.2773 14.6494L19.701 19.013H16.6827ZM23.2129 23.7468L18.2773 9L13 23.7468H14.9742L15.9614 21H20.2515L21.2387 23.7468H23.2129Z" fill="#D81D99"/>
<path d="M24.2055 23.7468H26.0469V9.85714H24.2055V23.7468Z" fill="#D81D99"/>
<path d="M29.6074 14.5909H27.785V19.6364C27.785 22.539 29.0759 23.9805 31.7335 23.9805C33.1762 23.9805 34.2203 23.5519 34.9796 22.539C35.644 21.6623 35.682 20.7662 35.682 19.6364V14.5909H33.8596V19.5974C33.8596 21.2727 33.1003 22.1494 31.7145 22.1494C30.3477 22.1494 29.6074 21.2727 29.6074 19.5974V14.5909Z" fill="#D81D99"/>
<path d="M37.5087 23.7468H39.312V18.4286C39.312 17.0649 40.1093 16.3442 41.571 16.3442C41.647 16.3442 41.7229 16.3442 41.7988 16.3442V14.474C41.7039 14.474 41.609 14.474 41.5331 14.474C39.1032 14.474 37.5087 16.013 37.5087 18.4481V23.7468Z" fill="#D81D99"/>
<path d="M47.0273 16.1494C48.6219 16.1494 49.8558 17.4351 49.8558 19.1883C49.8558 20.961 48.6789 22.1494 46.9324 22.1494C45.2619 22.1494 44.085 20.961 44.085 19.2857C44.085 17.4156 45.3948 16.1494 47.0273 16.1494ZM50.9189 21.6234L51.6213 23.7662H53.5196L51.7921 18.4675C51.4504 17.3961 51.1277 16.4416 50.3684 15.6623C49.4951 14.7857 48.4131 14.3377 47.0843 14.3377C44.2748 14.3377 42.2246 16.4805 42.2246 19.1688C42.2246 21.974 44.1609 24 46.9324 24C48.6979 24 50.0836 23.1818 50.9189 21.6234Z" fill="#D81D99"/>
<path d="M54.1292 23.7468H55.9326V19.5C58.1726 19.539 59.3116 20.8052 59.3116 23.3182C59.3116 23.4545 59.2926 23.5909 59.2926 23.7468H61.115C61.115 23.6299 61.115 23.5325 61.115 23.4156C61.115 20.6494 60.1659 18.974 58.2296 18.3312L61.115 14.5909H58.913L55.9326 18.5065V9.85714H54.1292V23.7468Z" fill="#D81D99"/>
<path d="M63.9794 14.5909H62.157V19.6364C62.157 22.539 63.4479 23.9805 66.1055 23.9805C67.5482 23.9805 68.5923 23.5519 69.3516 22.539C70.016 21.6623 70.054 20.7662 70.054 19.6364V14.5909H68.2316V19.5974C68.2316 21.2727 67.4723 22.1494 66.0865 22.1494C64.7197 22.1494 63.9794 21.2727 63.9794 19.5974V14.5909Z" fill="#D81D99"/>
<path d="M71.1783 16.2078H72.0895V19.6364C72.0895 22.2468 73.4752 23.7078 76 23.7468V21.8766C74.4434 21.7208 73.8739 20.8831 73.8739 19.0909V16.2078H75.8861V14.5909H73.8739V12.4286H72.0895V14.5909H71.1783V16.2078Z" fill="#D81D99"/>
</svg>
